<svg width="527" height="391" viewBox="0 0 527 391" fill="none" xmlns="http://www.w3.org/2000/svg">
<g clip-path="url(#clip0)">
<path d="M451.504 211.812C451.504 271.952 415.64 325.156 360.66 357.543C325.41 378.312 282.297 390.525 235.746 390.525C173.731 390.525 126.426 367.483 90.842 332.186C58.0432 299.661 35.2053 256.721 19.9881 211.812C-47.9452 11.3028 65.5381 -43.3987 235.746 33.0988C344.118 81.8106 451.504 113.114 451.504 211.812Z" fill="#05BB66"/>
<path d="M360.66 106.844V358.018C325.41 378.788 282.297 391 235.746 391C173.731 391 126.426 367.959 90.842 332.662V106.844H360.66Z" fill="#F2F2F2"/>
<path d="M116.794 229.23C130.922 224.813 145.579 222.244 160.389 221.59C167.81 221.279 175.244 221.565 182.618 222.445C189.92 223.394 197.134 224.912 204.192 226.985C211.165 228.97 218.041 231.263 224.991 233.324C232.051 235.443 239.228 237.165 246.487 238.481C253.708 239.765 261.002 240.62 268.329 241.04C275.583 241.455 282.909 241.535 290.143 240.776C296.901 240.136 303.519 238.487 309.771 235.884C315.601 233.383 320.989 229.985 325.733 225.819C326.916 224.78 328.055 223.695 329.149 222.565C329.795 221.902 328.771 220.892 328.124 221.557C318.876 231.06 306.721 236.953 293.537 238.921C286.355 239.993 279.036 240.055 271.79 239.779C264.383 239.498 257 238.764 249.685 237.583C242.459 236.405 235.31 234.805 228.276 232.792C221.367 230.824 214.553 228.556 207.668 226.51C200.723 224.366 193.633 222.705 186.451 221.541C179.248 220.462 171.967 219.965 164.682 220.055C150.124 220.284 135.66 222.39 121.66 226.318C119.901 226.804 118.151 227.316 116.409 227.855C115.521 228.129 115.9 229.506 116.794 229.23H116.794Z" fill="#3F3D56"/>
<path d="M116.794 265.359C130.922 260.941 145.579 258.372 160.389 257.718C167.81 257.408 175.244 257.694 182.618 258.573C189.92 259.523 197.134 261.041 204.192 263.114C211.165 265.099 218.041 267.392 224.991 269.452C232.051 271.572 239.228 273.294 246.487 274.609C253.708 275.894 261.002 276.749 268.329 277.169C275.583 277.583 282.909 277.664 290.143 276.904C296.901 276.265 303.519 274.615 309.771 272.013C315.601 269.512 320.989 266.114 325.733 261.948C326.916 260.909 328.055 259.824 329.149 258.694C329.795 258.03 328.771 257.02 328.124 257.685C318.876 267.189 306.721 273.082 293.537 275.05C286.355 276.122 279.036 276.184 271.79 275.907C264.383 275.626 257 274.893 249.685 273.712C242.459 272.533 235.31 270.934 228.276 268.921C221.367 266.953 214.553 264.684 207.668 262.639C200.723 260.495 193.633 258.834 186.451 257.669C179.248 256.591 171.967 256.094 164.682 256.184C150.124 256.413 135.66 258.518 121.66 262.447C119.901 262.932 118.151 263.445 116.409 263.984C115.521 264.257 115.9 265.635 116.794 265.359H116.794Z" fill="#3F3D56"/>
<path d="M116.794 196.429C130.922 192.012 145.579 189.443 160.389 188.789C167.81 188.478 175.244 188.764 182.618 189.644C189.92 190.593 197.134 192.111 204.192 194.184C211.165 196.169 218.041 198.462 224.991 200.523C232.051 202.642 239.228 204.364 246.487 205.68C253.708 206.964 261.002 207.819 268.329 208.239C275.583 208.654 282.909 208.734 290.143 207.975C296.901 207.335 303.519 205.686 309.771 203.083C315.601 200.582 320.989 197.185 325.733 193.018C326.916 191.979 328.055 190.895 329.149 189.764C329.795 189.101 328.771 188.091 328.124 188.756C318.876 198.259 306.721 204.152 293.537 206.12C286.355 207.192 279.036 207.254 271.79 206.978C264.383 206.697 257 205.963 249.685 204.782C242.459 203.604 235.31 202.004 228.276 199.991C221.367 198.024 214.553 195.755 207.668 193.709C200.723 191.565 193.633 189.905 186.451 188.74C179.248 187.661 171.967 187.164 164.682 187.254C150.124 187.483 135.66 189.589 121.66 193.518C119.901 194.003 118.151 194.515 116.409 195.054C115.521 195.328 115.9 196.705 116.794 196.429H116.794Z" fill="#3F3D56"/>
<path d="M115.066 134.412C118.576 132.884 122.596 133.15 126.239 134.037C130.166 134.992 133.865 136.654 137.731 137.804C144.651 139.831 152.003 139.968 158.996 138.2C162.934 137.213 166.691 135.63 170.133 133.507C170.922 133.02 170.195 131.785 169.401 132.276C163.265 136.043 156.172 138.031 148.938 138.011C145.309 138.006 141.701 137.483 138.225 136.46C134.387 135.329 130.719 133.687 126.83 132.712C122.711 131.68 118.294 131.456 114.334 133.181C113.482 133.552 114.219 134.781 115.066 134.412V134.412Z" fill="#3F3D56"/>
<path d="M222.85 353.089C235.135 353.089 245.093 343.298 245.093 331.221C245.093 319.144 235.135 309.354 222.85 309.354C210.566 309.354 200.607 319.144 200.607 331.221C200.607 343.298 210.566 353.089 222.85 353.089Z" fill="#3F3D56"/>
<path d="M102.931 62.1586C109.607 62.1586 115.019 56.8377 115.019 50.2742C115.019 43.7106 109.607 38.3898 102.931 38.3898C96.2543 38.3898 90.842 43.7106 90.842 50.2742C90.842 56.8377 96.2543 62.1586 102.931 62.1586Z" fill="#F2F2F2"/>
<path d="M208.827 92.1073C213.367 92.1073 217.048 88.4891 217.048 84.0259C217.048 79.5627 213.367 75.9445 208.827 75.9445C204.287 75.9445 200.607 79.5627 200.607 84.0259C200.607 88.4891 204.287 92.1073 208.827 92.1073Z" fill="#F2F2F2"/>
<path d="M75.3685 169.594C79.9084 169.594 83.5887 165.975 83.5887 161.512C83.5887 157.049 79.9084 153.431 75.3685 153.431C70.8285 153.431 67.1482 157.049 67.1482 161.512C67.1482 165.975 70.8285 169.594 75.3685 169.594Z" fill="#F2F2F2"/>
<path d="M42.2725 101.476H41.366V260.843H42.2725V101.476Z" fill="#3F3D56"/>
<path d="M41.994 247.185C51.7566 247.185 59.6708 229.43 59.6708 207.527C59.6708 185.625 51.7566 167.869 41.994 167.869C32.2313 167.869 24.3171 185.625 24.3171 207.527C24.3171 229.43 32.2313 247.185 41.994 247.185Z" fill="#3F3D56"/>
<path d="M41.994 156.73C51.7566 156.73 59.6708 138.974 59.6708 117.072C59.6708 95.1692 51.7566 77.4137 41.994 77.4137C32.2313 77.4137 24.3171 95.1692 24.3171 117.072C24.3171 138.974 32.2313 156.73 41.994 156.73Z" fill="#3F3D56"/>
<path d="M42.4282 84.6711L41.5598 84.4153C41.6147 84.2351 46.9439 66.281 38.1933 54.7229C33.251 48.1952 24.77 44.8853 12.9858 44.8853V43.9941C25.074 43.9941 33.8005 47.4259 38.923 54.1942C47.9445 66.1145 42.4844 84.4871 42.4282 84.6711Z" fill="#3F3D56"/>
<path d="M12.9858 55.5796C19.244 55.5796 24.3172 50.5921 24.3172 44.4397C24.3172 38.2873 19.244 33.2998 12.9858 33.2998C6.72774 33.2998 1.65454 38.2873 1.65454 44.4397C1.65454 50.5921 6.72774 55.5796 12.9858 55.5796Z" fill="#3F3D56"/>
<path d="M372.688 296.957L364.21 373.634H422.706L425.25 367.8L428.641 373.634H483.746C483.746 373.634 479.508 294.456 471.878 291.956C464.248 289.456 372.688 296.957 372.688 296.957Z" fill="#2F2E41"/>
<path d="M422.707 128.599C439.094 128.599 452.379 115.539 452.379 99.4281C452.379 83.3175 439.094 70.2572 422.707 70.2572C406.319 70.2572 393.034 83.3175 393.034 99.4281C393.034 115.539 406.319 128.599 422.707 128.599Z" fill="#FFB8B8"/>
<path d="M405.751 117.764C405.751 117.764 408.294 144.435 405.751 146.102C403.208 147.768 446.444 146.935 446.444 146.935C446.444 146.935 440.51 122.765 446.444 111.096L405.751 117.764Z" fill="#FFB8B8"/>
<path d="M421.011 140.267C421.011 140.267 442.825 143.608 444.635 136.937L455.77 151.936L456.618 301.957C456.618 301.957 365.906 312.792 362.514 295.29C359.123 277.787 397.273 139.434 397.273 139.434L406.878 138.823C406.878 138.823 419.315 140.267 421.011 140.267Z" fill="#D0CDE1"/>
<path d="M406.733 131.978L392.186 136.934L350.645 146.935L352.341 246.949C352.341 246.949 316.734 346.964 332.842 354.465C348.95 361.966 371.84 344.464 378.622 331.962C385.404 319.46 409.142 146.102 409.142 142.768C409.142 139.434 406.733 131.978 406.733 131.978Z" fill="#3F3D56"/>
<path d="M444.09 131.978L449.835 136.934L490.529 155.269L470.182 256.117C470.182 256.117 497.311 347.797 487.138 352.798C476.964 357.799 461.704 371.968 458.313 363.633C454.922 355.298 434.953 141.191 444.09 131.978Z" fill="#3F3D56"/>
<path d="M467.639 265.285C467.639 265.285 429.489 249.45 428.641 263.619C427.793 277.787 471.878 287.789 471.878 283.621C471.878 279.454 467.639 265.285 467.639 265.285Z" fill="#FFB8B8"/>
<path d="M374.383 259.451C374.383 259.451 418.468 291.956 401.512 300.29C384.557 308.625 362.514 271.12 362.514 271.12L374.383 259.451Z" fill="#FFB8B8"/>
<path d="M435.88 56.6974C436.019 56.4073 436.244 56.1649 436.524 56.0012C436.805 55.8374 437.129 55.7599 437.455 55.7786C423.87 54.9797 409.561 56.5363 398.197 63.8958C395.014 65.9569 392.041 68.4772 388.418 69.6388L391.359 71.9064L387.845 72.9595L393.017 76.2456C392.494 76.8293 391.825 77.2668 391.075 77.5138C390.325 77.7607 389.522 77.8083 388.748 77.6517C390.995 78.2972 392.65 80.2636 393.491 82.4122C394.331 84.5608 394.482 86.9008 394.624 89.1985C395.493 85.8831 399.173 83.9315 402.65 83.7332C406.127 83.5349 409.517 84.6626 412.901 85.4733C420.27 87.2338 427.924 87.5233 435.409 86.3245C432.867 91.3391 435.011 97.3205 437.169 102.506L441.477 112.861C443.868 113.097 445.559 110.759 447.361 109.195C449.003 107.769 442.465 120.307 443.477 119.848C444.792 119.251 458.671 104.187 459.321 102.914C462.286 97.1081 464.065 90.6318 463.797 84.1401C463.53 77.6485 461.114 71.1537 456.562 66.4431C453.472 63.2451 449.197 62.6851 446.047 60.0272C444.807 58.9811 444.802 58.1639 443.099 57.554C442.533 57.3514 435.973 56.4932 435.88 56.6974Z" fill="#2F2E41"/>
<path d="M356.58 149.435L350.645 146.935L303.17 223.613C303.17 223.613 294.692 243.616 309.952 252.784C325.212 261.952 360.819 289.456 360.819 289.456L381.165 258.618C381.165 258.618 339.624 239.448 342.168 231.947C344.711 224.446 358.275 204.443 358.275 204.443L356.58 149.435Z" fill="#3F3D56"/>
<path d="M479.508 153.603L490.529 155.269C490.529 155.269 536.309 243.616 525.288 260.285C514.266 276.954 469.334 300.291 469.334 300.291C469.334 300.291 468.486 272.787 460.856 262.785L487.138 252.784L472.725 197.776L479.508 153.603Z" fill="#3F3D56"/>
</g>
<defs>
<clipPath id="clip0">
<rect width="527" height="391" fill="white"/>
</clipPath>
</defs>
</svg>
